<svg xmlns="http://www.w3.org/2000/svg" viewBox="0 0 743.77 742.67"><defs><style>.cls-1{fill:#ffffff03;}</style></defs><title>Asset 3</title><g id="Layer_2" data-name="Layer 2"><g id="Layer_1-2" data-name="Layer 1"><path class="cls-1" d="M742.27,478.15l-77.72-37.6c2.07-6.62,3.92-13.27,5.55-20.06a340.4,340.4,0,0,0,9.66-80.63c0-128.82-72-241.11-177.93-298.73A339.05,339.05,0,0,0,339.9,0C152.49,0,0,152.45,0,339.86a339.19,339.19,0,0,0,12.52,91.52c3.17,11.24,6.92,22.35,11.11,33.15C73.49,590.44,196.49,679.76,339.9,679.76a335.55,335.55,0,0,0,81.51-10c6.93-1.67,13.71-3.57,20.46-5.69l37.3,77.07a2.65,2.65,0,0,0,5-.93l8.16-96.72A341.88,341.88,0,0,0,644.09,491.33l97.25-8.2A2.62,2.62,0,0,0,742.27,478.15ZM59.52,467c-1.41-3-2.74-6.12-4-9.21A305.48,305.48,0,0,1,32,339.86C32,170.13,170.13,32.05,339.9,32.05A305.62,305.62,0,0,1,491.25,72c3.65,2.07,7.27,4.19,10.84,6.43,1.06,2.65,2.07,5.34,3,8a312.77,312.77,0,0,1-22.83,262c-.58,1-1.19,2-1.81,3L243.88,237.05l-.09-.05a4,4,0,0,0-5,.53l-.22.22a4,4,0,0,0-.53,5l.05.08L349.6,473.35c-1.32.66-2.65,1.32-4,1.94a312.73,312.73,0,0,1-276.2-3.05Q64.41,469.74,59.52,467ZM408.59,640a306.89,306.89,0,0,1-68.69,7.76c-111.45,0-209.23-59.56-263.28-148.44,2.43,1.06,4.85,2.07,7.27,3.08a334.41,334.41,0,0,0,270.16-7.45c1.63-.79,3.22-1.54,4.85-2.38l68.86,142.36C421.46,636.82,415.07,638.49,408.59,640Zm87-34.57,6.83-80.85L296,300.44a3.88,3.88,0,0,1,.7-4.58l.27-.22a3.82,3.82,0,0,1,4.58-.75L525.59,501.34,606,494.55A310.8,310.8,0,0,1,495.57,605.38ZM640.21,407.66c-1.45,6.3-3,12.56-4.89,18.74L499.71,360.84c.79-1.28,1.54-2.6,2.29-3.92a334.56,334.56,0,0,0,31.3-252.44c-.44-1.67-.92-3.35-1.41-5,70.58,56.43,115.86,143.24,115.86,240.36A309.9,309.9,0,0,1,640.21,407.66Z"/></g></g></svg>